<svg width="69" height="33" viewBox="0 0 69 33" fill="none" xmlns="http://www.w3.org/2000/svg">
<path d="M13 21.6557C11.7541 17.8365 12.1066 13.7436 6.5 13.7436C0.893418 13.7436 1.24766 17.8332 0 21.6557C1.14954 24.3974 -0.486 26.6107 1.17526 28.1308C2.83652 29.6509 4.65657 30.4388 6.5 30.4359C8.34343 30.4388 10.1635 29.6509 11.8247 28.1308C13.486 26.6107 11.8505 24.3974 13 21.6557Z" fill="#070247"/>
<path fill-rule="evenodd" clip-rule="evenodd" d="M7 13C8.32608 13 9.59785 12.4732 10.5355 11.5355C11.4732 10.5979 12 9.32608 12 8C12 6.67392 11.4732 5.40215 10.5355 4.46447C9.59785 3.52678 8.32608 3 7 3C5.67392 3 4.40215 3.52678 3.46447 4.46447C2.52678 5.40215 2 6.67392 2 8C2 9.32608 2.52678 10.5979 3.46447 11.5355C4.40215 12.4732 5.67392 13 7 13V13Z" fill="#070247"/>
<path d="M29.992 15.2127C29.464 15.0047 29.048 14.9007 28.744 14.9007C28.184 14.9007 27.744 15.0367 27.424 15.3087C27.104 15.5807 26.944 16.0607 26.944 16.7487V18.4767H29.32V19.7727H26.944V29.9487H25.072V19.7727H23.176V18.4767H25.072V16.7247C25.072 15.5887 25.384 14.7567 26.008 14.2287C26.632 13.6847 27.352 13.4127 28.168 13.4127C28.984 13.4127 29.704 13.5167 30.328 13.7247L29.992 15.2127Z" fill="#070247"/>
<path d="M31.424 13.6047H33.32V29.9487H31.424V13.6047Z" fill="#070247"/>
<path d="M57.15 21.428C57.714 20.408 58.554 19.898 59.67 19.898C60.798 19.898 61.734 20.312 62.478 21.14C63.234 21.968 63.612 23.06 63.612 24.416C63.612 25.772 63.234 26.864 62.478 27.692C61.722 28.508 60.792 28.916 59.688 28.916C58.584 28.916 57.768 28.502 57.24 27.674V32.948H55.818V20.114H56.988L57.15 21.428ZM59.616 27.656C60.288 27.656 60.876 27.368 61.38 26.792C61.896 26.216 62.154 25.43 62.154 24.434C62.154 23.426 61.908 22.628 61.416 22.04C60.936 21.452 60.348 21.158 59.652 21.158C58.956 21.158 58.386 21.38 57.942 21.824C57.498 22.256 57.264 22.844 57.24 23.588V25.226C57.24 25.982 57.468 26.576 57.924 27.008C58.38 27.44 58.944 27.656 59.616 27.656Z" fill="#070247"/>
<path d="M48.15 21.428C48.714 20.408 49.554 19.898 50.67 19.898C51.798 19.898 52.734 20.312 53.478 21.14C54.234 21.968 54.612 23.06 54.612 24.416C54.612 25.772 54.234 26.864 53.478 27.692C52.722 28.508 51.792 28.916 50.688 28.916C49.584 28.916 48.768 28.502 48.24 27.674V32.948H46.818V20.114H47.988L48.15 21.428ZM50.616 27.656C51.288 27.656 51.876 27.368 52.38 26.792C52.896 26.216 53.154 25.43 53.154 24.434C53.154 23.426 52.908 22.628 52.416 22.04C51.936 21.452 51.348 21.158 50.652 21.158C49.956 21.158 49.386 21.38 48.942 21.824C48.498 22.256 48.264 22.844 48.24 23.588V25.226C48.24 25.982 48.468 26.576 48.924 27.008C49.38 27.44 49.944 27.656 50.616 27.656Z" fill="#070247"/>
<path d="M44.146 23.138C44.146 22.358 43.984 21.8 43.66 21.464C43.336 21.128 42.862 20.96 42.238 20.96C41.626 20.96 41.128 21.086 40.744 21.338C40.372 21.578 40.186 21.962 40.186 22.49H38.62C38.62 21.17 39.328 20.354 40.744 20.042C41.176 19.946 41.644 19.898 42.148 19.898C43.216 19.898 44.05 20.168 44.65 20.708C45.25 21.248 45.55 22.07 45.55 23.174V28.718H44.326L44.182 27.278C43.654 28.37 42.7 28.916 41.32 28.916C40.396 28.916 39.652 28.658 39.088 28.142C38.536 27.626 38.26 26.984 38.26 26.216C38.26 25.448 38.566 24.848 39.178 24.416C39.802 23.984 40.576 23.768 41.5 23.768C42.424 23.768 43.306 23.924 44.146 24.236V23.138ZM44.146 25.136C43.294 24.896 42.55 24.776 41.914 24.776C41.278 24.776 40.762 24.89 40.366 25.118C39.97 25.346 39.772 25.706 39.772 26.198C39.772 27.278 40.384 27.818 41.608 27.818C42.304 27.818 42.898 27.572 43.39 27.08C43.894 26.576 44.146 25.928 44.146 25.136Z" fill="#070247"/>
<path d="M36.112 30.1647C35.712 30.1647 35.376 30.0367 35.104 29.7807C34.848 29.5087 34.72 29.1887 34.72 28.8207C34.72 28.4367 34.848 28.1167 35.104 27.8607C35.376 27.5887 35.712 27.4527 36.112 27.4527C36.528 27.4527 36.872 27.5887 37.144 27.8607C37.416 28.1167 37.552 28.4367 37.552 28.8207C37.552 29.1887 37.416 29.5087 37.144 29.7807C36.872 30.0367 36.528 30.1647 36.112 30.1647Z" fill="#070247"/>
<path d="M20.104 20.0847C18.296 20.0847 17.36 21.5087 17.296 24.3567V29.9487H15.4V18.4527H17.296V20.6607C17.872 19.0607 18.888 18.2607 20.344 18.2607C20.808 18.2607 21.248 18.3327 21.664 18.4767L21.568 20.3247C21.088 20.1647 20.6 20.0847 20.104 20.0847Z" fill="#070247"/>
</svg>
