<svg width="23" height="36" viewBox="0 0 23 36" fill="none" xmlns="http://www.w3.org/2000/svg">
<path d="M22.2353 25.1396C20.1043 20.4156 20.7072 15.3529 11.1177 15.3529C1.52811 15.3529 2.13401 20.4115 0 25.1396C1.96618 28.5309 -0.831258 31.2685 2.01017 33.1488C4.8516 35.0291 7.96463 36.0036 11.1177 36C14.2707 36.0036 17.3837 35.0291 20.2251 33.1488C23.0666 31.2685 20.2691 28.5309 22.2353 25.1396Z" fill="black"/>
<path fill-rule="evenodd" clip-rule="evenodd" d="M11.5809 14.8235C13.5466 14.8235 15.4318 14.0427 16.8218 12.6527C18.2118 11.2627 18.9927 9.37749 18.9927 7.41177C18.9927 5.44604 18.2118 3.56083 16.8218 2.17086C15.4318 0.780881 13.5466 0 11.5809 0C9.61517 0 7.72996 0.780881 6.33998 2.17086C4.95001 3.56083 4.16913 5.44604 4.16913 7.41177C4.16913 9.37749 4.95001 11.2627 6.33998 12.6527C7.72996 14.0427 9.61517 14.8235 11.5809 14.8235V14.8235Z" fill="black"/>
</svg>
