<svg width="31" height="36" viewBox="0 0 31 36" fill="none" xmlns="http://www.w3.org/2000/svg">
<path fill-rule="evenodd" clip-rule="evenodd" d="M0 6.00075C0 2.6865 6.71625 0 15.0007 0C23.2852 0 30.0015 2.6865 30.0015 6.00075V9C29.997 12.3165 23.2807 15.0007 15.0007 15.0007C6.71625 15.0007 0 12.3143 0 9V6.00075ZM0 14.2515V21.0015C0 24.3112 6.71625 27 15.0007 27C23.2807 27 29.997 24.3158 30.0015 21.0038V14.2515C29.034 14.9715 27.9067 15.5565 26.721 16.029C23.5732 17.289 19.4265 18 15.0007 18C10.575 18 6.42825 17.2868 3.27825 16.029C2.11421 15.5786 1.01253 14.9813 0 14.2515V14.2515ZM30.0015 26.253C29.034 26.9708 27.9067 27.5535 26.721 28.0282C23.571 29.2882 19.4265 29.9993 15.0007 29.9993C10.575 29.9993 6.42825 29.2882 3.27825 28.0282C2.11423 27.5778 1.01256 26.9805 0 26.2507V29.9993C0 33.3135 6.71625 36 15.0007 36C23.2852 36 30.0015 33.3135 30.0015 29.9993V26.253Z" fill="black"/>
</svg>
